<mxfile host="app.diagrams.net" modified="2021-01-08T09:19:56.071Z" agent="5.0 (Macintosh; Intel Mac OS X 10_15_7) AppleWebKit/537.36 (KHTML, like Gecko) Chrome/87.0.4280.88 Safari/537.36" etag="-NnUY48oQr7840IStG-W" version="14.1.8" type="github">
  <diagram name="Page-1" id="9361dd3d-8414-5efd-6122-117bd74ce7a7">
    <mxGraphModel dx="2377" dy="1728" grid="1" gridSize="10" guides="1" tooltips="1" connect="1" arrows="1" fold="1" page="0" pageScale="1.5" pageWidth="826" pageHeight="1169" background="#ffffff" math="0" shadow="0">
      <root>
        <mxCell id="0" />
        <mxCell id="1" parent="0" />
        <mxCell id="JcAVQRJsr9uqyGy7CnjM-127" value="" style="rounded=0;whiteSpace=wrap;html=1;dashed=1;" vertex="1" parent="1">
          <mxGeometry x="-617" y="-390" width="887" height="450" as="geometry" />
        </mxCell>
        <mxCell id="JcAVQRJsr9uqyGy7CnjM-89" value="GestureBinding" style="rounded=0;whiteSpace=wrap;html=1;" vertex="1" parent="1">
          <mxGeometry x="-760" y="-510" width="110" height="40" as="geometry" />
        </mxCell>
        <mxCell id="JcAVQRJsr9uqyGy7CnjM-90" value="" style="endArrow=none;dashed=1;html=1;entryX=0.5;entryY=1;entryDx=0;entryDy=0;" edge="1" parent="1" target="JcAVQRJsr9uqyGy7CnjM-89">
          <mxGeometry width="50" height="50" relative="1" as="geometry">
            <mxPoint x="-710" y="184" as="sourcePoint" />
            <mxPoint x="-440" y="-320" as="targetPoint" />
          </mxGeometry>
        </mxCell>
        <mxCell id="JcAVQRJsr9uqyGy7CnjM-91" value="HitTestTarget" style="rounded=0;whiteSpace=wrap;html=1;" vertex="1" parent="1">
          <mxGeometry x="-560" y="-510" width="110" height="40" as="geometry" />
        </mxCell>
        <mxCell id="JcAVQRJsr9uqyGy7CnjM-92" value="" style="endArrow=none;dashed=1;html=1;entryX=0.5;entryY=1;entryDx=0;entryDy=0;" edge="1" parent="1">
          <mxGeometry width="50" height="50" relative="1" as="geometry">
            <mxPoint x="-507.5" y="184" as="sourcePoint" />
            <mxPoint x="-502.5" y="-470" as="targetPoint" />
          </mxGeometry>
        </mxCell>
        <mxCell id="JcAVQRJsr9uqyGy7CnjM-93" value="Listener" style="rounded=0;whiteSpace=wrap;html=1;" vertex="1" parent="1">
          <mxGeometry x="-360" y="-510" width="110" height="40" as="geometry" />
        </mxCell>
        <mxCell id="JcAVQRJsr9uqyGy7CnjM-94" value="PrimaryPointerGestureRecognizer" style="rounded=0;whiteSpace=wrap;html=1;" vertex="1" parent="1">
          <mxGeometry x="-180" y="-510" width="200" height="40" as="geometry" />
        </mxCell>
        <mxCell id="JcAVQRJsr9uqyGy7CnjM-96" value="PointerRouter" style="rounded=0;whiteSpace=wrap;html=1;" vertex="1" parent="1">
          <mxGeometry x="150" y="-510" width="130" height="40" as="geometry" />
        </mxCell>
        <mxCell id="JcAVQRJsr9uqyGy7CnjM-97" value="" style="endArrow=none;dashed=1;html=1;entryX=0.5;entryY=1;entryDx=0;entryDy=0;" edge="1" parent="1" source="JcAVQRJsr9uqyGy7CnjM-106">
          <mxGeometry width="50" height="50" relative="1" as="geometry">
            <mxPoint x="-307.5" y="184" as="sourcePoint" />
            <mxPoint x="-302.5" y="-470" as="targetPoint" />
          </mxGeometry>
        </mxCell>
        <mxCell id="JcAVQRJsr9uqyGy7CnjM-98" value="" style="endArrow=none;dashed=1;html=1;entryX=0.5;entryY=1;entryDx=0;entryDy=0;" edge="1" parent="1">
          <mxGeometry width="50" height="50" relative="1" as="geometry">
            <mxPoint x="-82.5" y="184" as="sourcePoint" />
            <mxPoint x="-77.5" y="-470" as="targetPoint" />
          </mxGeometry>
        </mxCell>
        <mxCell id="JcAVQRJsr9uqyGy7CnjM-100" value="" style="endArrow=none;dashed=1;html=1;entryX=0.5;entryY=1;entryDx=0;entryDy=0;" edge="1" parent="1">
          <mxGeometry width="50" height="50" relative="1" as="geometry">
            <mxPoint x="212.5" y="184" as="sourcePoint" />
            <mxPoint x="217.5" y="-470" as="targetPoint" />
          </mxGeometry>
        </mxCell>
        <mxCell id="JcAVQRJsr9uqyGy7CnjM-147" style="edgeStyle=orthogonalEdgeStyle;rounded=0;orthogonalLoop=1;jettySize=auto;html=1;exitX=1;exitY=0.75;exitDx=0;exitDy=0;entryX=1;entryY=0.75;entryDx=0;entryDy=0;" edge="1" parent="1" source="JcAVQRJsr9uqyGy7CnjM-101" target="JcAVQRJsr9uqyGy7CnjM-146">
          <mxGeometry relative="1" as="geometry" />
        </mxCell>
        <mxCell id="JcAVQRJsr9uqyGy7CnjM-101" value="" style="rounded=0;whiteSpace=wrap;html=1;" vertex="1" parent="1">
          <mxGeometry x="-712.5" y="-380" width="15" height="440" as="geometry" />
        </mxCell>
        <mxCell id="JcAVQRJsr9uqyGy7CnjM-102" value="" style="endArrow=classic;html=1;exitX=0.967;exitY=0.073;exitDx=0;exitDy=0;exitPerimeter=0;entryX=0;entryY=0;entryDx=0;entryDy=0;" edge="1" parent="1" source="JcAVQRJsr9uqyGy7CnjM-101" target="JcAVQRJsr9uqyGy7CnjM-103">
          <mxGeometry width="50" height="50" relative="1" as="geometry">
            <mxPoint x="-510" y="-200" as="sourcePoint" />
            <mxPoint x="-520" y="-348" as="targetPoint" />
          </mxGeometry>
        </mxCell>
        <mxCell id="JcAVQRJsr9uqyGy7CnjM-104" value="&lt;span style=&quot;font-size: 11px&quot;&gt;dispatchEvent&lt;/span&gt;" style="edgeLabel;html=1;align=center;verticalAlign=middle;resizable=0;points=[];" vertex="1" connectable="0" parent="JcAVQRJsr9uqyGy7CnjM-102">
          <mxGeometry x="0.0561" y="-1" relative="1" as="geometry">
            <mxPoint as="offset" />
          </mxGeometry>
        </mxCell>
        <mxCell id="JcAVQRJsr9uqyGy7CnjM-109" style="edgeStyle=orthogonalEdgeStyle;rounded=0;orthogonalLoop=1;jettySize=auto;html=1;exitX=1;exitY=0.25;exitDx=0;exitDy=0;entryX=0;entryY=0;entryDx=0;entryDy=0;" edge="1" parent="1" source="JcAVQRJsr9uqyGy7CnjM-103" target="JcAVQRJsr9uqyGy7CnjM-106">
          <mxGeometry relative="1" as="geometry">
            <mxPoint x="-320" y="-292" as="targetPoint" />
            <Array as="points">
              <mxPoint x="-497" y="-300" />
            </Array>
          </mxGeometry>
        </mxCell>
        <mxCell id="JcAVQRJsr9uqyGy7CnjM-114" value="_handlePointerDown" style="edgeLabel;html=1;align=center;verticalAlign=middle;resizable=0;points=[];" vertex="1" connectable="0" parent="JcAVQRJsr9uqyGy7CnjM-109">
          <mxGeometry x="-0.0753" y="-4" relative="1" as="geometry">
            <mxPoint y="-14" as="offset" />
          </mxGeometry>
        </mxCell>
        <mxCell id="JcAVQRJsr9uqyGy7CnjM-126" style="edgeStyle=orthogonalEdgeStyle;rounded=0;orthogonalLoop=1;jettySize=auto;html=1;exitX=0;exitY=1;exitDx=0;exitDy=0;entryX=1;entryY=0.75;entryDx=0;entryDy=0;" edge="1" parent="1" source="JcAVQRJsr9uqyGy7CnjM-103" target="JcAVQRJsr9uqyGy7CnjM-101">
          <mxGeometry relative="1" as="geometry">
            <Array as="points">
              <mxPoint x="-570" y="-50" />
              <mxPoint x="-570" y="-50" />
            </Array>
          </mxGeometry>
        </mxCell>
        <mxCell id="JcAVQRJsr9uqyGy7CnjM-103" value="" style="rounded=0;whiteSpace=wrap;html=1;" vertex="1" parent="1">
          <mxGeometry x="-512.5" y="-350" width="15" height="300" as="geometry" />
        </mxCell>
        <mxCell id="JcAVQRJsr9uqyGy7CnjM-111" style="edgeStyle=orthogonalEdgeStyle;rounded=0;orthogonalLoop=1;jettySize=auto;html=1;exitX=1;exitY=0.25;exitDx=0;exitDy=0;" edge="1" parent="1" source="JcAVQRJsr9uqyGy7CnjM-106">
          <mxGeometry relative="1" as="geometry">
            <mxPoint x="-88" y="-257" as="targetPoint" />
            <Array as="points">
              <mxPoint x="-297" y="-257" />
            </Array>
          </mxGeometry>
        </mxCell>
        <mxCell id="JcAVQRJsr9uqyGy7CnjM-113" value="addPointer" style="edgeLabel;html=1;align=center;verticalAlign=middle;resizable=0;points=[];" vertex="1" connectable="0" parent="JcAVQRJsr9uqyGy7CnjM-111">
          <mxGeometry x="0.0576" y="-2" relative="1" as="geometry">
            <mxPoint as="offset" />
          </mxGeometry>
        </mxCell>
        <mxCell id="JcAVQRJsr9uqyGy7CnjM-106" value="" style="rounded=0;whiteSpace=wrap;html=1;" vertex="1" parent="1">
          <mxGeometry x="-312.5" y="-300" width="15" height="210" as="geometry" />
        </mxCell>
        <mxCell id="JcAVQRJsr9uqyGy7CnjM-107" value="" style="endArrow=none;dashed=1;html=1;entryX=0.5;entryY=1;entryDx=0;entryDy=0;" edge="1" parent="1" target="JcAVQRJsr9uqyGy7CnjM-106">
          <mxGeometry width="50" height="50" relative="1" as="geometry">
            <mxPoint x="-307.5" y="184" as="sourcePoint" />
            <mxPoint x="-302.5" y="-470" as="targetPoint" />
          </mxGeometry>
        </mxCell>
        <mxCell id="JcAVQRJsr9uqyGy7CnjM-116" style="edgeStyle=orthogonalEdgeStyle;rounded=0;orthogonalLoop=1;jettySize=auto;html=1;exitX=1;exitY=0;exitDx=0;exitDy=0;" edge="1" parent="1" source="JcAVQRJsr9uqyGy7CnjM-110">
          <mxGeometry relative="1" as="geometry">
            <mxPoint x="-60" y="-230" as="targetPoint" />
            <Array as="points">
              <mxPoint x="-72" y="-250" />
              <mxPoint x="20" y="-250" />
              <mxPoint x="20" y="-230" />
            </Array>
          </mxGeometry>
        </mxCell>
        <mxCell id="JcAVQRJsr9uqyGy7CnjM-117" value="addAllowedPointer" style="edgeLabel;html=1;align=center;verticalAlign=middle;resizable=0;points=[];" vertex="1" connectable="0" parent="JcAVQRJsr9uqyGy7CnjM-116">
          <mxGeometry x="0.0165" y="1" relative="1" as="geometry">
            <mxPoint x="41" y="-0.5" as="offset" />
          </mxGeometry>
        </mxCell>
        <mxCell id="JcAVQRJsr9uqyGy7CnjM-124" style="edgeStyle=orthogonalEdgeStyle;rounded=0;orthogonalLoop=1;jettySize=auto;html=1;exitX=0;exitY=1;exitDx=0;exitDy=0;entryX=1.1;entryY=0.819;entryDx=0;entryDy=0;entryPerimeter=0;" edge="1" parent="1" source="JcAVQRJsr9uqyGy7CnjM-110" target="JcAVQRJsr9uqyGy7CnjM-106">
          <mxGeometry relative="1" as="geometry">
            <Array as="points">
              <mxPoint x="-87" y="-128" />
            </Array>
          </mxGeometry>
        </mxCell>
        <mxCell id="JcAVQRJsr9uqyGy7CnjM-110" value="" style="rounded=0;whiteSpace=wrap;html=1;" vertex="1" parent="1">
          <mxGeometry x="-87.5" y="-260" width="15" height="130" as="geometry" />
        </mxCell>
        <mxCell id="JcAVQRJsr9uqyGy7CnjM-118" style="edgeStyle=orthogonalEdgeStyle;rounded=0;orthogonalLoop=1;jettySize=auto;html=1;exitX=1;exitY=0.25;exitDx=0;exitDy=0;entryX=0;entryY=0;entryDx=0;entryDy=0;" edge="1" parent="1" source="JcAVQRJsr9uqyGy7CnjM-115" target="JcAVQRJsr9uqyGy7CnjM-119">
          <mxGeometry relative="1" as="geometry">
            <mxPoint x="160" y="-210" as="targetPoint" />
            <Array as="points">
              <mxPoint x="180" y="-210" />
              <mxPoint x="180" y="-210" />
            </Array>
          </mxGeometry>
        </mxCell>
        <mxCell id="JcAVQRJsr9uqyGy7CnjM-120" value="&lt;span style=&quot;color: rgba(0 , 0 , 0 , 0) ; font-family: monospace ; font-size: 0px&quot;&gt;%3CmxGraphModel%3E%3Croot%3E%3CmxCell%20id%3D%220%22%2F%3E%3CmxCell%20id%3D%221%22%20parent%3D%220%22%2F%3E%3CmxCell%20id%3D%222%22%20value%3D%22%22%20style%3D%22rounded%3D0%3BwhiteSpace%3Dwrap%3Bhtml%3D1%3B%22%20vertex%3D%221%22%20parent%3D%221%22%3E%3CmxGeometry%20x%3D%22-77.5%22%20y%3D%22-230%22%20width%3D%2215%22%20height%3D%2280%22%20as%3D%22geometry%22%2F%3E%3C%2FmxCell%3E%3C%2Froot%3E%3C%2FmxGraphModel%3E&lt;/span&gt;" style="edgeLabel;html=1;align=center;verticalAlign=middle;resizable=0;points=[];" vertex="1" connectable="0" parent="JcAVQRJsr9uqyGy7CnjM-118">
          <mxGeometry x="0.3761" y="-2" relative="1" as="geometry">
            <mxPoint x="1" as="offset" />
          </mxGeometry>
        </mxCell>
        <mxCell id="JcAVQRJsr9uqyGy7CnjM-121" value="addRoute" style="edgeLabel;html=1;align=center;verticalAlign=middle;resizable=0;points=[];" vertex="1" connectable="0" parent="JcAVQRJsr9uqyGy7CnjM-118">
          <mxGeometry x="0.3908" relative="1" as="geometry">
            <mxPoint x="1" as="offset" />
          </mxGeometry>
        </mxCell>
        <mxCell id="JcAVQRJsr9uqyGy7CnjM-115" value="" style="rounded=0;whiteSpace=wrap;html=1;" vertex="1" parent="1">
          <mxGeometry x="-77.5" y="-230" width="15" height="80" as="geometry" />
        </mxCell>
        <mxCell id="JcAVQRJsr9uqyGy7CnjM-122" style="edgeStyle=orthogonalEdgeStyle;rounded=0;orthogonalLoop=1;jettySize=auto;html=1;exitX=0;exitY=1;exitDx=0;exitDy=0;" edge="1" parent="1" source="JcAVQRJsr9uqyGy7CnjM-119">
          <mxGeometry relative="1" as="geometry">
            <mxPoint x="-60" y="-150" as="targetPoint" />
            <Array as="points">
              <mxPoint x="180" y="-150" />
              <mxPoint x="180" y="-150" />
            </Array>
          </mxGeometry>
        </mxCell>
        <mxCell id="JcAVQRJsr9uqyGy7CnjM-119" value="" style="rounded=0;whiteSpace=wrap;html=1;" vertex="1" parent="1">
          <mxGeometry x="210" y="-210" width="15" height="60" as="geometry" />
        </mxCell>
        <mxCell id="JcAVQRJsr9uqyGy7CnjM-125" value="" style="endArrow=classic;html=1;entryX=1.033;entryY=0.863;entryDx=0;entryDy=0;entryPerimeter=0;exitX=0.25;exitY=1;exitDx=0;exitDy=0;" edge="1" parent="1" source="JcAVQRJsr9uqyGy7CnjM-106" target="JcAVQRJsr9uqyGy7CnjM-103">
          <mxGeometry width="50" height="50" relative="1" as="geometry">
            <mxPoint x="-320" y="-90" as="sourcePoint" />
            <mxPoint x="-280" y="-180" as="targetPoint" />
          </mxGeometry>
        </mxCell>
        <mxCell id="JcAVQRJsr9uqyGy7CnjM-135" value="loop" style="shape=umlFrame;whiteSpace=wrap;html=1;width=120;height=30;boundedLbl=1;verticalAlign=middle;align=left;spacingLeft=5;dashed=1;" vertex="1" parent="1">
          <mxGeometry x="-220" y="-310" width="472.23" height="250" as="geometry" />
        </mxCell>
        <mxCell id="JcAVQRJsr9uqyGy7CnjM-140" value="" style="endArrow=none;html=1;dashed=1;" edge="1" parent="1">
          <mxGeometry width="50" height="50" relative="1" as="geometry">
            <mxPoint x="-517" y="-370" as="sourcePoint" />
            <mxPoint x="-517" y="-390" as="targetPoint" />
          </mxGeometry>
        </mxCell>
        <mxCell id="JcAVQRJsr9uqyGy7CnjM-141" value="" style="endArrow=none;html=1;dashed=1;" edge="1" parent="1">
          <mxGeometry width="50" height="50" relative="1" as="geometry">
            <mxPoint x="-527" y="-360" as="sourcePoint" />
            <mxPoint x="-517" y="-370" as="targetPoint" />
          </mxGeometry>
        </mxCell>
        <mxCell id="JcAVQRJsr9uqyGy7CnjM-142" value="" style="endArrow=none;html=1;dashed=1;" edge="1" parent="1">
          <mxGeometry width="50" height="50" relative="1" as="geometry">
            <mxPoint x="-617" y="-360" as="sourcePoint" />
            <mxPoint x="-527" y="-360" as="targetPoint" />
          </mxGeometry>
        </mxCell>
        <mxCell id="JcAVQRJsr9uqyGy7CnjM-143" value="loop" style="text;html=1;align=center;verticalAlign=middle;resizable=0;points=[];autosize=1;" vertex="1" parent="1">
          <mxGeometry x="-587" y="-390" width="40" height="20" as="geometry" />
        </mxCell>
        <mxCell id="JcAVQRJsr9uqyGy7CnjM-145" value="handleEvent" style="text;whiteSpace=wrap;html=1;" vertex="1" parent="1">
          <mxGeometry x="-690" y="-30" width="90" height="30" as="geometry" />
        </mxCell>
        <mxCell id="JcAVQRJsr9uqyGy7CnjM-146" value="" style="rounded=0;whiteSpace=wrap;html=1;" vertex="1" parent="1">
          <mxGeometry x="-707" y="-20" width="17" height="80" as="geometry" />
        </mxCell>
      </root>
    </mxGraphModel>
  </diagram>
</mxfile>
